<?xml version="1.0" encoding="utf-8"?>
<!-- Svg Vector Icons : http://www.onlinewebfonts.com/icon -->
<svg version="1.1" xmlns="http://www.w3.org/2000/svg" xmlns:xlink="http://www.w3.org/1999/xlink" x="0px" y="0px" viewBox="0 0 1000 1000" enable-background="new 0 0 1000 1000" xml:space="preserve">
<g><path d="M132.5,469.4H40.6C22.3,469.4,10,481.6,10,500c0,18.4,12.3,30.6,30.6,30.6h91.9c18.4,0,30.6-12.2,30.6-30.6C163.1,481.6,150.9,469.4,132.5,469.4z M218.3,261.1c12.3,12.3,30.6,12.3,42.9,0c12.2-12.2,12.2-30.6,0-42.9l-64.3-64.3c-12.3-12.3-30.6-12.3-42.9,0c-12.3,12.2-12.3,30.6,0,42.9L218.3,261.1z M500,163.1c18.4,0,30.6-12.2,30.6-30.6V40.6c0-18.4-12.2-30.6-30.6-30.6c-18.4,0-30.6,12.3-30.6,30.6v91.9C469.4,150.9,481.6,163.1,500,163.1z M794,248.9l64.3-64.3c12.3-12.2,12.3-30.6,0-42.9c-12.2-12.2-30.6-12.2-42.9,0L751.1,206c-12.3,12.2-12.3,30.6,0,42.9C763.4,261.1,781.8,261.1,794,248.9z M500,836.9c-18.4,0-30.6,12.3-30.6,30.6v91.9c0,18.4,12.2,30.6,30.6,30.6c18.4,0,30.6-12.2,30.6-30.6v-91.9C530.6,849.1,518.4,836.9,500,836.9z M781.8,738.9c-12.2-12.2-30.6-12.2-42.9,0c-12.2,12.3-12.2,30.6,0,42.9l64.3,64.3c12.2,12.2,30.6,12.2,42.9,0c12.2-12.3,12.2-30.6,0-42.9L781.8,738.9z M959.4,469.4h-91.9c-18.4,0-30.6,12.2-30.6,30.6c0,18.4,12.3,30.6,30.6,30.6h91.9c18.4,0,30.6-12.2,30.6-30.6C990,481.6,977.8,469.4,959.4,469.4z M500,224.4c-153.1,0-275.6,122.5-275.6,275.6c0,153.1,122.5,275.6,275.6,275.6c153.1,0,275.6-122.5,275.6-275.6C775.6,346.9,653.1,224.4,500,224.4z M236.6,720.5l-64.3,64.3c-12.3,12.3-12.3,30.6,0,42.9c12.2,12.3,30.6,12.3,42.9,0l64.3-64.3c12.3-12.3,12.3-30.6,0-42.9C267.3,708.3,248.9,708.3,236.6,720.5z"/></g>
</svg>