<?xml version="1.0" encoding="utf-8"?>
<!-- Svg Vector Icons : http://www.onlinewebfonts.com/icon -->
<!DOCTYPE svg PUBLIC "-//W3C//DTD SVG 1.1//EN" "http://www.w3.org/Graphics/SVG/1.1/DTD/svg11.dtd">
<svg version="1.1" xmlns="http://www.w3.org/2000/svg" xmlns:xlink="http://www.w3.org/1999/xlink" x="0px" y="0px" viewBox="0 0 1000 1000" enable-background="new 0 0 1000 1000" xml:space="preserve">
<metadata> Svg Vector Icons : http://www.onlinewebfonts.com/icon </metadata>
<g><g transform="translate(0.000000,512.000000) scale(0.100000,-0.100000)"><path d="M4879.7,4996.3c-78.6-34.5-159-132.2-172.5-208.9c-5.7-34.5-9.6-364.1-5.7-735.8c5.7-645.7,7.7-676.4,46-726.2c74.7-99.6,136-132.2,254.8-132.2c90.1,0,122.6,9.6,178.2,51.7c128.4,97.7,130.3,107.3,130.3,858.4c0,749.2-1.9,760.7-128.4,856.5C5103.8,5019.2,4965.9,5036.5,4879.7,4996.3z"/><path d="M3436.8,3777.6c-155.2-93.9-174.4-245.3-69-507.8c84.3-208.9,120.7-264.4,206.9-304.7c205-97.7,440.7,44.1,438.8,264.4c0,74.7-107.3,369.8-170.5,467.5C3768.3,3814,3563.2,3854.2,3436.8,3777.6z"/><path d="M6257.4,3779.5c-84.3-51.7-111.2-95.8-201.2-323.8c-82.4-212.7-84.3-270.2-15.3-385.2c76.7-126.5,251-172.5,392.8-105.4c84.3,40.2,118.8,92,205,300.8c84.3,205,92,320,28.7,415.8C6579.3,3810.2,6383.8,3856.1,6257.4,3779.5z"/><path d="M1662.4,3662.6c-82.4-24.9-182-132.2-205-218.4c-42.2-155.2-21.1-185.9,496.3-707.1c260.6-262.5,498.2-488.6,528.9-505.9c128.4-67.1,304.7-17.2,389,109.2c51.7,74.7,59.4,222.3,17.2,302.7c-15.3,28.7-237.6,260.6-494.4,515.5C1869.4,3683.7,1827.2,3710.5,1662.4,3662.6z"/><path d="M8146.7,3651.1c-74.7-32.6-981.1-923.6-1027.1-1011.7c-69-126.5-19.2-304.7,107.3-389c74.7-51.7,222.3-59.4,302.8-17.2c28.7,15.3,264.4,241.4,525,504c404.3,408.1,475.2,486.7,494.4,557.6c40.2,153.3-57.5,323.8-212.7,367.9C8252.1,3687.5,8227.2,3685.6,8146.7,3651.1z"/><path d="M4668.9,2855.9c-640-88.1-1170.8-350.7-1619.2-801c-526.9-528.9-795.2-1182.3-795.2-1937.2c0-760.7,268.3-1410.3,804.8-1944.9c408.1-410.1,885.3-661.1,1456.3-768.4c254.8-47.9,732-47.9,977.2-1.9c862.3,166.7,1598.1,716.7,1971.7,1479.3C7675.3-690.9,7750.1-369,7752,108.1c0,367.9-26.8,540.3-134.1,873.8c-132.2,412-346.8,758.8-668.8,1080.7c-515.5,515.4-1144,785.6-1877.8,804.8C4923.7,2871.2,4743.6,2867.4,4668.9,2855.9z"/><path d="M1444,1784.8c-176.3-107.3-187.8-396.7-19.2-505.9c97.7-63.2,392.8-170.5,467.5-170.5c220.4-1.9,362.2,233.8,264.4,438.8c-40.2,84.3-92,118.8-300.8,205C1658.6,1834.6,1541.7,1844.2,1444,1784.8z"/><path d="M8194.6,1773.3c-228-97.7-279.8-128.4-325.8-195.4c-132.2-195.4,13.4-471.4,247.2-469.5c84.3,0,431.1,134.1,496.3,193.5c90.1,78.6,116.9,252.9,53.6,367.9C8583.6,1826.9,8411.1,1865.2,8194.6,1773.3z"/><path d="M275.1,391.7C95,303.6,43.3,75.6,169.7-75.8c93.9-111.1,113.1-113,850.8-113c749.2,0,758.8,1.9,856.5,130.3c42.2,55.6,51.7,88.1,51.7,176.3c0,88.1-9.6,120.7-51.7,176.3c-97.7,128.4-105.4,130.3-862.3,130.3C432.2,424.3,328.8,418.5,275.1,391.7z"/><path d="M8252.1,397.5c-178.2-76.6-233.8-306.6-115-461.8c92-122.6,105.4-124.6,852.7-124.6c751.1,0,760.7,1.9,858.4,130.3C9890.4-3,9900,29.6,9900,117.7c0,88.1-9.6,120.7-51.7,176.3c-99.6,128.4-105.4,130.3-862.3,130.3C8466.7,422.4,8296.2,416.6,8252.1,397.5z"/><path d="M1746.7-903.6c-344.9-124.6-440.7-207-440.7-385.2c0-176.3,118.8-298.9,291.3-298.9c90.1,0,375.6,103.5,477.1,174.4c113.1,78.6,149.5,283.6,69,400.5C2053.3-876.8,1923-840.4,1746.7-903.6z"/><path d="M8026-886.4c-182-65.1-256.8-251-174.4-425.4c40.3-84.3,92-118.8,300.8-205c205-84.3,320-92,415.8-26.8c172.5,116.9,178.2,392.8,13.4,502c-59.4,38.3-350.7,155.2-425.4,170.5C8125.6-865.3,8066.2-872.9,8026-886.4z"/><path d="M2465.3-2007.3c-30.7-19.2-262.5-241.4-511.6-492.5c-486.7-490.5-526.9-544.2-504-682.1c17.2-101.6,124.6-218.4,222.3-245.3c161-44.1,191.6-23,712.8,494.4c262.5,260.6,488.6,496.3,504,525c40.2,74.7,34.5,224.2-11.5,298.9C2796.8-1976.7,2593.7-1926.8,2465.3-2007.3z"/><path d="M7230.8-2009.2c-34.5-21.1-78.6-65.2-99.6-99.6c-46-74.7-51.7-224.2-11.5-298.9c15.3-28.7,241.4-264.4,503.9-525c408.1-404.3,486.7-475.2,557.6-494.4c220.4-57.5,425.4,147.5,367.9,367.9c-19.2,70.9-88.1,149.5-494.4,557.6c-260.6,262.5-496.3,488.6-525,503.9C7455-1957.5,7305.5-1963.3,7230.8-2009.2z"/><path d="M3570.9-2731.6c-80.5-38.3-115-92-201.2-298.9c-86.2-205-92-320-26.8-417.7c113.1-168.6,394.7-176.3,500.1-13.4c63.2,97.7,170.5,392.8,170.5,467.5C4015.5-2773.8,3774-2630.1,3570.9-2731.6z"/><path d="M6134.7-2743.1c-86.2-57.5-139.9-153.3-139.9-251c0-74.7,107.3-369.8,170.5-467.5c105.4-162.9,385.2-155.2,502,15.3c63.2,95.8,55.6,210.8-28.7,415.8c-38.3,92-84.3,191.6-103.5,218.4C6456.6-2699.1,6251.6-2662.6,6134.7-2743.1z"/><path d="M4879.7-2976.9c-90.1-47.9-141.8-107.3-164.8-180.1c-11.5-44.1-17.2-316.2-13.4-753c5.7-655.3,7.7-686,46-735.8c74.7-99.6,136-132.2,254.8-132.2c90.1,0,122.6,9.6,178.2,51.7c128.4,97.7,130.3,107.3,130.3,858.4c0,749.2-1.9,760.7-128.4,856.5C5100-2948.2,4962-2932.8,4879.7-2976.9z"/></g></g>
</svg>