<?xml version="1.0" encoding="utf-8"?>
<!-- Svg Vector Icons : http://www.onlinewebfonts.com/icon -->
<!DOCTYPE svg PUBLIC "-//W3C//DTD SVG 1.1//EN" "http://www.w3.org/Graphics/SVG/1.1/DTD/svg11.dtd">
<svg version="1.1" xmlns="http://www.w3.org/2000/svg" xmlns:xlink="http://www.w3.org/1999/xlink" x="0px" y="0px" viewBox="0 0 1000 1000" enable-background="new 0 0 1000 1000" xml:space="preserve">
<metadata> Svg Vector Icons : http://www.onlinewebfonts.com/icon </metadata>
<g><g transform="translate(0.000000,511.000000) scale(0.100000,-0.100000)"><path d="M4854,4951.7l-66-58l-6-458c-4-250-2-484,6-518c14-78,94-162,170-178c84-18,190,38,230,122c28,60,32,138,26,550l-6,482l-66,58C5052,5031.7,4944,5031.7,4854,4951.7z"/><path d="M2567.9,4371.7c-64-28-110-92-124-170c-10-66,12-112,224-484c130-226,258-428,286-448c76-60,190-52,268,18c114,100,100,152-164,608c-124,218-254,418-286,446C2713.9,4389.7,2641.9,4401.7,2567.9,4371.7z"/><path d="M7226.1,4343.7c-34-28-164-230-288-448c-264-456-278-508-164-608c78-70,192-78,268-18c28,20,156,222,286,448c214,376,234,418,224,486c-16,98-88,166-186,180C7300.1,4391.7,7276.1,4383.7,7226.1,4343.7z"/><path d="M4688,3297.6c-1418.1-152-2554.1-1190-2834.1-2594.1c-64-322-64-866,0-1188.1c260-1302.1,1248.1-2290.1,2550.1-2550.1c322-64,866-64,1188.1,0c1300,260,2290.1,1250,2550.1,2550.1c64,322,64,866.1,0,1188.1c-260,1298.1-1254.1,2294.1-2538.1,2546.1C5394,3291.6,4880,3317.6,4688,3297.6z"/><path d="M797.8,2615.6c-90-80-102-196-34-278c28-34,230-164,448-288c456-264,508-278,608-164c70,78,78,192,18,268c-20,28-220,154-444,282C943.8,2693.6,899.8,2707.6,797.8,2615.6z"/><path d="M8608.1,2441.6c-220-128-420-254-444-282c-108-124-18-332,146-336c66-2,144,34,474,226c218,124,420,254,448,288c100,120,18,304-146,324C9016.2,2671.6,8970.1,2649.6,8608.1,2441.6z"/><path d="M225.8,309.5c-132-54-168-234-70-344l58-66l456-6c252-4,486-2,520,6c78,14,162,94,178,170c18,82-38,190-120,228c-54,26-146,32-524,30C473.8,327.5,247.8,319.5,225.8,309.5z"/><path d="M8744.1,297.5c-58-30-126-130-126-188c0-60,68-160,130-188c92-44,916-46,1018-4c142,60,178,220,74,336l-58,66l-488,6C8882.1,329.5,8798.1,325.5,8744.1,297.5z"/><path d="M1617.8-1604.6c-110-42-812-464-854-514c-98-116-20-300,140-326c68-10,110,10,486,224c226,130,428,258,448,286c60,74,52,190-14,264C1767.8-1610.6,1675.8-1580.6,1617.8-1604.6z"/><path d="M8246.1-1608.6c-120-52-166-228-88-328c22-26,224-156,450-284c374-214,416-234,484-224c98,16,166,88,180,186c16,122-42,172-480,424C8400.1-1608.6,8322.1-1576.6,8246.1-1608.6z"/><path d="M2951.9-3050.6c-26-22-156-224-284-450c-214-374-234-416-224-484c18-110,94-176,202-176c66,0,102,12,138,46c28,26,152,224,276,440c190,330,226,408,224,472C3279.9-3042.6,3079.9-2950.6,2951.9-3050.6z"/><path d="M6774.1-3068.6c-114-100-100-152,164-608c124-218,254-420,288-448c116-98,300-20,326,140c10,68-10,110-224,484c-128,226-258,428-284,450C6966.1-2990.6,6854.1-2996.6,6774.1-3068.6z"/><path d="M4904-3542.6c-118-60-128-112-122-650l6-482l66-58c76-68,186-78,262-26c90,64,102,134,102,610c0,496-12,550-130,606.1C5006-3502.6,4984-3502.6,4904-3542.6z"/></g></g>
</svg>