<?xml version="1.0" encoding="utf-8"?>
<!-- Svg Vector Icons : http://www.onlinewebfonts.com/icon -->
<!DOCTYPE svg PUBLIC "-//W3C//DTD SVG 1.1//EN" "http://www.w3.org/Graphics/SVG/1.1/DTD/svg11.dtd">
<svg version="1.1" xmlns="http://www.w3.org/2000/svg" xmlns:xlink="http://www.w3.org/1999/xlink" x="0px" y="0px" viewBox="0 0 1000 1000" enable-background="new 0 0 1000 1000" xml:space="preserve">
<metadata> Svg Vector Icons : http://www.onlinewebfonts.com/icon </metadata>
<g><g transform="translate(0.000000,511.000000) scale(0.100000,-0.100000)"><path d="M4784.7,4945.2l-64-64v-564.8v-564.8l64-70.6c52.9-59.6,79.4-72.8,156.7-72.8c77.2,0,103.7,13.2,156.6,72.8l64,70.6v564.8v564.8l-64,64c-50.7,50.7-83.8,64-156.6,64S4835.4,4996,4784.7,4945.2z"/><path d="M8151.6,3643.5c-35.3-22.1-227.3-205.2-423.6-403.8c-350.8-355.2-359.6-364.1-359.6-456.7c0-132.4,90.5-222.8,222.8-222.8c94.9,0,101.5,6.6,487.6,392.7c247.1,247.1,394.9,412.6,403.8,452.3c22.1,83.8-26.5,187.5-108.1,238.3C8288.4,3696.4,8235.4,3696.4,8151.6,3643.5z"/><path d="M1497.2,3533.2c-50.7-50.8-64-83.9-64-158.9c0-92.7,6.6-101.5,370.7-467.7c377.3-381.7,445.7-434.7,547.2-434.7c77.2,0,207.4,130.2,207.4,207.4c0,101.5-52.9,169.9-434.7,549.4c-366.2,361.9-375.1,368.5-467.7,368.5C1581,3597.1,1547.9,3583.9,1497.2,3533.2z"/><path d="M4705.2,2999.2C3233.6,2851.4,2095.1,1593.7,2095.1,111.1c0-765.6,302.3-1491.5,849.5-2043.1c432.5-434.7,953.2-708.3,1551.1-816.4c251.5-44.1,750.2-44.1,1003.9,0c1173.8,211.8,2087.3,1103.2,2345.4,2285.8c57.4,264.8,57.4,882.6,0,1147.3C7525,2158.6,6183.5,3147,4705.2,2999.2z"/><path d="M8599.5,360.4c-121.3-77.2-141.2-231.7-41.9-342l64-72.8l529.5-6.6c602.3-6.6,661.9,4.4,723.7,134.6c44.1,90.5,30.9,165.5-44.1,251.5l-52.9,61.8l-560.4,6.6C8725.3,397.9,8652.5,393.5,8599.5,360.4z"/><path d="M224.1,254.5C67.4,186.1,56.4-43.4,206.4-133.8c61.8-37.5,114.7-41.9,593.5-41.9c344.2,0,542.8,8.8,573.7,24.3c139,70.6,167.7,236.1,61.8,355.2l-64,72.8L833,280.9C402.8,285.4,281.4,280.9,224.1,254.5z"/><path d="M7527.2-2304.9c-83.8-70.6-110.3-178.7-64-267c17.6-35.3,203-229.5,408.2-432.5c364.1-361.8,375.1-370.7,465.6-370.7c132.4,0,222.8,90.4,222.8,222.8c0,92.7-6.6,101.5-392.7,489.8c-353,355.2-401.6,395-481,406C7613.2-2247.6,7586.8-2254.2,7527.2-2304.9z"/><path d="M1925.2-2717.5c-244.9-242.7-390.5-406-403.8-450.1c-50.7-154.5,103.7-324.3,255.9-286.8c77.2,19.9,794.3,721.5,836.2,818.6c64,145.6-46.3,297.9-216.2,297.9C2311.3-2338,2295.9-2349.1,1925.2-2717.5z"/><path d="M4972.2-3397.1c-26.5-8.8-68.4-46.3-94.9-79.4c-44.1-57.4-46.3-81.6-46.3-597.9c0-571.4,11-637.6,108.1-690.6c86.1-44.1,200.8-26.5,269.2,41.9l64,64v571.5c0,505.3-4.4,573.7-39.7,615.6C5162-3383.9,5069.3-3357.4,4972.2-3397.1z"/></g></g>
</svg>