<?xml version="1.0" encoding="utf-8"?>
<!-- Svg Vector Icons : http://www.onlinewebfonts.com/icon -->
<!DOCTYPE svg PUBLIC "-//W3C//DTD SVG 1.1//EN" "http://www.w3.org/Graphics/SVG/1.1/DTD/svg11.dtd">
<svg version="1.1" xmlns="http://www.w3.org/2000/svg" xmlns:xlink="http://www.w3.org/1999/xlink" x="0px" y="0px" viewBox="0 0 1000 1000" enable-background="new 0 0 1000 1000" xml:space="preserve">
<metadata> Svg Vector Icons : http://www.onlinewebfonts.com/icon </metadata>
<g><path d="M391,22.2l-15.7,100.4c23.6-7.8,48.1-13.3,73.4-16.6L391,22.2z"/><path d="M282.7,167.2l-88.3-50.3l29.5,97.3C241.9,196.8,261.7,181,282.7,167.2z"/><path d="M609,22.2L551.3,106c25.3,3.3,49.8,8.8,73.4,16.5L609,22.2z"/><path d="M805.6,116.9l-88.3,50.2c21.1,13.8,40.8,29.6,58.8,47L805.6,116.9z"/><path d="M941.5,287.3L840,294.4c12.9,21.4,23.9,44.1,32.7,67.8L941.5,287.3z"/><path d="M160.1,294.4l-101.7-7.1l68.9,75.1C136.2,338.5,147.1,315.8,160.1,294.4z"/><path d="M990,500l-94.2-37.6c1.1,12.4,1.9,24.9,1.9,37.6c0,12.7-0.8,25.2-1.9,37.6L990,500z"/><path d="M717.3,832.9l88.3,50.3l-29.5-97.3C758.1,803.3,738.4,819.1,717.3,832.9z"/><path d="M839.9,705.6l101.6,7.2l-68.9-75C863.9,661.5,852.9,684.2,839.9,705.6z"/><path d="M609,977.8l15.7-100.4c-23.6,7.8-48.2,13.3-73.4,16.6L609,977.8z"/><path d="M194.4,883.1l88.3-50.3c-21.1-13.8-40.8-29.6-58.8-47L194.4,883.1z"/><path d="M58.5,712.7l101.7-7.1c-13-21.4-24-44.1-32.7-67.9L58.5,712.7z"/><path d="M391,977.8l57.7-83.8c-25.3-3.3-49.8-8.8-73.4-16.6L391,977.8z"/><path d="M102.4,500c0-12.7,0.7-25.2,1.9-37.6L10,500l94.3,37.6C103.1,525.3,102.4,512.7,102.4,500z"/><path d="M848,500c0-192.2-155.8-348-348-348c-192.2,0-348,155.8-348,348c0,192.2,155.7,348,348,348C692.2,848,848,692.2,848,500z"/></g>
</svg>