<?xml version="1.0" encoding="utf-8"?>
<!-- Svg Vector Icons : http://www.onlinewebfonts.com/icon -->
<!DOCTYPE svg PUBLIC "-//W3C//DTD SVG 1.1//EN" "http://www.w3.org/Graphics/SVG/1.1/DTD/svg11.dtd">
<svg version="1.1" xmlns="http://www.w3.org/2000/svg" xmlns:xlink="http://www.w3.org/1999/xlink" x="0px" y="0px" viewBox="0 0 1000 1000" enable-background="new 0 0 1000 1000" xml:space="preserve">
<metadata> Svg Vector Icons : http://www.onlinewebfonts.com/icon </metadata>
<g><circle cx="500" cy="500" r="216.5"/><path d="M500,751.9c-138.9,0-251.9-113-251.9-251.9c0-138.9,113-251.9,251.9-251.9c138.9,0,251.9,113,251.9,251.9C751.9,638.9,638.9,751.9,500,751.9z M500,318.9c-99.9,0-181.1,81.2-181.1,181.1S400.1,681.1,500,681.1S681.1,599.9,681.1,500S599.9,318.9,500,318.9z"/><path d="M500,195.9c-19.6,0-35.4-15.8-35.4-35.4V45.4c0-19.5,15.8-35.4,35.4-35.4c19.5,0,35.4,15.8,35.4,35.4v115.1C535.4,180,519.5,195.9,500,195.9z"/><path d="M500,990c-19.6,0-35.4-15.8-35.4-35.4V839.5c0-19.5,15.8-35.4,35.4-35.4c19.5,0,35.4,15.9,35.4,35.4v115.1C535.4,974.2,519.5,990,500,990z"/><path d="M954.6,535.4H839.5c-19.5,0-35.4-15.8-35.4-35.4c0-19.6,15.9-35.4,35.4-35.4h115.1c19.5,0,35.4,15.8,35.4,35.4C990,519.5,974.2,535.4,954.6,535.4z"/><path d="M160.5,535.4H45.4C25.9,535.4,10,519.5,10,500c0-19.6,15.9-35.4,35.4-35.4h115.1c19.6,0,35.4,15.8,35.4,35.4C195.9,519.5,180,535.4,160.5,535.4z"/><path d="M740.1,295.3c-9.1,0-18.1-3.5-25-10.4c-13.8-13.8-13.8-36.2,0-50.1l81.4-81.4c13.8-13.8,36.2-13.8,50.1,0c13.8,13.8,13.8,36.2,0,50.1L765.1,285C758.2,291.9,749.1,295.3,740.1,295.3z"/><path d="M178.5,856.9c-9.1,0-18.1-3.5-25-10.4c-13.8-13.8-13.8-36.2,0-50.1l81.4-81.4c13.8-13.8,36.2-13.8,50.1,0c13.8,13.8,13.8,36.2,0,50.1l-81.4,81.4C196.7,853.4,187.6,856.9,178.5,856.9z"/><path d="M821.4,856.9c-9.1,0-18.1-3.5-25-10.4L715,765.1c-13.8-13.8-13.8-36.2,0-50.1c13.8-13.8,36.2-13.8,50.1,0l81.4,81.4c13.8,13.8,13.8,36.2,0,50.1C839.6,853.4,830.5,856.9,821.4,856.9z"/><path d="M259.9,295.3c-9.1,0-18.1-3.5-25-10.4l-81.4-81.4c-13.8-13.8-13.8-36.2,0-50.1c13.8-13.8,36.2-13.8,50.1,0l81.4,81.4c13.8,13.8,13.8,36.2,0,50.1C278.1,291.9,269,295.3,259.9,295.3z"/><g></g><g></g><g></g><g></g><g></g><g></g><g></g><g></g><g></g><g></g><g></g><g></g><g></g><g></g><g></g></g>
</svg>